<svg width="32" height="32" viewBox="0 0 32 32" fill="none" xmlns="http://www.w3.org/2000/svg">
<path d="M0 1.92C0 0.859613 0.859613 0 1.92 0H30.08C31.1404 0 32 0.859613 32 1.92V30.08C32 31.1404 31.1404 32 30.08 32H1.92C0.859613 32 0 31.1404 0 30.08V1.92Z" fill="black"/>
<path d="M21.59 12.5468C22.3416 12.0822 22.9211 11.385 23.2407 10.5612C23.5603 9.73735 23.6025 8.83175 23.3608 7.98178C23.1191 7.13181 22.6068 6.38385 21.9016 5.85138C21.1964 5.3189 20.3368 5.03096 19.4531 5.03125H12.5469C11.6632 5.03096 10.8036 5.3189 10.0984 5.85138C9.39316 6.38385 8.88086 7.13181 8.6392 7.98178C8.39754 8.83175 8.43969 9.73735 8.75927 10.5612C9.07885 11.385 9.65842 12.0822 10.41 12.5468C9.82132 12.9105 9.33536 13.4187 8.99832 14.0231C8.66128 14.6274 8.48437 15.308 8.48438 16C8.48438 16.692 8.66132 17.3725 8.99838 17.9768C9.33543 18.5812 9.82141 19.0894 10.4101 19.453C9.80833 19.8255 9.31428 20.3487 8.97695 20.9709C8.63962 21.5931 8.47072 22.2926 8.48699 23.0002C8.50326 23.7077 8.70413 24.3988 9.0697 25.0048C9.43526 25.6108 9.95284 26.1108 10.5711 26.4552C11.1894 26.7996 11.887 26.9765 12.5947 26.9683C13.3024 26.9601 13.9957 26.7671 14.6058 26.4085C15.216 26.0498 15.7218 25.538 16.0733 24.9237C16.4247 24.3093 16.6095 23.6138 16.6094 22.9061V18.8974C17.0169 19.2978 17.5044 19.6077 18.04 19.8069C18.5755 20.006 19.147 20.0898 19.7172 20.053C20.2873 20.0161 20.8433 19.8593 21.3487 19.5928C21.8541 19.3264 22.2976 18.9563 22.6502 18.5067C23.0028 18.0571 23.2566 17.5382 23.3949 16.9838C23.5332 16.4295 23.5529 15.8522 23.4529 15.2897C23.3528 14.7271 23.1351 14.1921 22.8141 13.7194C22.4931 13.2468 22.076 12.8472 21.59 12.5468ZM22.2969 9.09375C22.296 9.84735 21.9964 10.5699 21.4637 11.1029C20.931 11.636 20.2087 11.9361 19.4551 11.9375L19.4531 11.9374L19.4492 11.9375L16.6094 11.9374V6.25H19.4531C20.2071 6.25085 20.9299 6.55073 21.463 7.08385C21.9961 7.61697 22.296 8.3398 22.2969 9.09375ZM9.70312 9.09375C9.70397 8.3398 10.0039 7.61697 10.537 7.08385C11.0701 6.55073 11.7929 6.25085 12.5469 6.25H15.3906V11.9374H12.5469L12.5449 11.9374C11.7913 11.9361 11.069 11.636 10.5363 11.1029C10.0036 10.5699 9.70398 9.84736 9.70312 9.09375ZM9.70312 15.9999C9.70398 15.2463 10.0036 14.5238 10.5363 13.9907C11.069 13.4576 11.7913 13.1575 12.5449 13.1562L12.5469 13.1563L15.3906 13.1562V18.8435L12.5469 18.8437C11.7929 18.8428 11.0701 18.5429 10.537 18.0098C10.0039 17.4767 9.70397 16.7538 9.70312 15.9999ZM12.5469 25.7498C12.1732 25.7501 11.8032 25.6768 11.4579 25.534C11.1126 25.3913 10.7988 25.1818 10.5345 24.9177C10.2702 24.6537 10.0605 24.3401 9.91747 23.9949C9.77441 23.6497 9.70077 23.2797 9.70077 22.9061C9.70077 22.5325 9.77441 22.1625 9.91747 21.8173C10.0605 21.4721 10.2702 21.1585 10.5345 20.8945C10.7988 20.6304 11.1126 20.4209 11.4579 20.2782C11.8032 20.1354 12.1732 20.0621 12.5469 20.0624L15.3906 20.0623V22.9061C15.3898 23.66 15.0899 24.3829 14.5568 24.916C14.0236 25.4491 13.3008 25.749 12.5469 25.7498ZM19.4531 18.8437C18.6994 18.8434 17.9766 18.544 17.4435 18.0112C16.9105 17.4783 16.6108 16.7556 16.6102 16.0019C16.6097 15.2482 16.9084 14.5251 17.4408 13.9915C17.9731 13.4579 18.6955 13.1575 19.4492 13.1563H19.4531L19.4551 13.1562C20.2088 13.1572 20.9313 13.4574 21.4638 13.9908C21.9963 14.5242 22.2953 15.2472 22.295 16.0009C22.2948 16.7546 21.9953 17.4774 21.4624 18.0104C20.9295 18.5435 20.2068 18.8432 19.4531 18.8437Z" fill="white"/>
</svg>
