<svg width="32" height="32" viewBox="0 0 32 32" fill="none" xmlns="http://www.w3.org/2000/svg">
<path d="M0 1.92C0 0.859613 0.859613 0 1.92 0H30.08C31.1404 0 32 0.859613 32 1.92V30.08C32 31.1404 31.1404 32 30.08 32H1.92C0.859613 32 0 31.1404 0 30.08V1.92Z" fill="black"/>
<path d="M29 16C29 23.1797 23.1797 29 16 29C8.8203 29 3 23.1797 3 16C3 8.8203 8.8203 3 16 3C23.1797 3 29 8.8203 29 16Z" fill="white"/>
<path d="M16 3C19.4478 3 22.7544 4.36964 25.1924 6.80761C27.6304 9.24558 29 12.5522 29 16C29 19.4478 27.6304 22.7544 25.1924 25.1924C22.7544 27.6304 19.4478 29 16 29C12.5522 29 9.24558 27.6304 6.80761 25.1924C4.36964 22.7544 3 19.4478 3 16C3 12.5522 4.36964 9.24558 6.80761 6.80761C9.24558 4.36964 12.5522 3 16 3ZM16 5.12333C10.0265 5.12333 5.16667 9.98317 5.16667 16C5.16388 18.2868 5.88195 20.5164 7.21882 22.3717C8.55569 24.2271 10.4433 25.6139 12.6135 26.335C12.6459 26.3398 12.6784 26.3435 12.711 26.3458C13.1508 26.3675 13.3155 26.0663 13.3155 25.8042L13.3003 23.9538C10.2887 24.6103 9.65167 22.4935 9.65167 22.4935C9.15983 21.2368 8.44917 20.9032 8.44917 20.9032C7.4655 20.2272 8.52283 20.2402 8.52283 20.2402C9.31367 20.2965 9.8315 20.8642 10.0568 21.1718L10.1825 21.3625C11.1488 23.0243 12.7175 22.5455 13.335 22.2682C13.4347 21.564 13.712 21.0852 14.0218 20.8122C11.6168 20.537 9.08833 19.6032 9.08833 15.4345C9.08833 14.2472 9.51083 13.2765 10.2042 12.5138L10.1392 12.3297C10.0005 11.8898 9.80983 10.904 10.3103 9.63433L10.397 9.61917C10.6657 9.5845 11.5843 9.591 13.2895 10.7502C14.1728 10.5086 15.0843 10.3854 16 10.384C16.9208 10.3883 17.8482 10.5097 18.7127 10.7523C20.7818 9.344 21.6897 9.63433 21.6897 9.63433C22.279 11.1337 21.9063 12.2387 21.798 12.516C22.4913 13.2743 22.9095 14.2472 22.9095 15.4345C22.9095 19.6162 20.3767 20.5348 17.963 20.8035C18.353 21.1393 18.6997 21.8045 18.6997 22.8185L18.6867 25.8042C18.6867 26.0858 18.8708 26.4152 19.3865 26.335C21.5567 25.6139 23.4443 24.2271 24.7812 22.3717C26.1181 20.5164 26.8361 18.2868 26.8333 16C26.8333 9.98317 21.9735 5.12333 16 5.12333Z" fill="black"/>
</svg>
