<svg width="32" height="32" viewBox="0 0 32 32" fill="none" xmlns="http://www.w3.org/2000/svg">
<path d="M0 1.92C0 0.859613 0.859613 0 1.92 0H30.08C31.1404 0 32 0.859613 32 1.92V30.08C32 31.1404 31.1404 32 30.08 32H1.92C0.859613 32 0 31.1404 0 30.08V1.92Z" fill="black"/>
<path d="M10.7786 10.1391C11.7289 8.78193 13.5995 8.45209 14.9568 9.40242C16.314 10.3527 16.6438 12.2234 15.6935 13.5806L9.95771 21.7721C9.00738 23.1293 7.13674 23.4592 5.77953 22.5089C4.42231 21.5585 4.09247 19.6879 5.0428 18.3307L10.7786 10.1391Z" fill="white"/>
<path d="M19.2678 10.228C20.2182 8.8708 22.0888 8.54095 23.446 9.49128C24.8032 10.4416 25.1331 12.3123 24.1827 13.6695L18.447 21.861C17.4966 23.2182 15.626 23.548 14.2688 22.5977C12.9116 21.6474 12.5817 19.7767 13.5321 18.4195L19.2678 10.228Z" fill="white"/>
<path d="M24.5 22.8596C26.1569 22.8596 27.5 21.5165 27.5 19.8596C27.5 18.2028 26.1569 16.8596 24.5 16.8596C22.8431 16.8596 21.5 18.2028 21.5 19.8596C21.5 21.5165 22.8431 22.8596 24.5 22.8596Z" fill="white"/>
</svg>
