<svg width="32" height="32" viewBox="0 0 32 32" fill="none" xmlns="http://www.w3.org/2000/svg">
<path d="M0 1.92C0 0.859613 0.859613 0 1.92 0H30.08C31.1404 0 32 0.859613 32 1.92V30.08C32 31.1404 31.1404 32 30.08 32H1.92C0.859613 32 0 31.1404 0 30.08V1.92Z" fill="black"/>
<g clip-path="url(#clip0_345_83)">
<path d="M19.5863 4C16.6836 5.374 13.7833 6.749 10.8818 8.124L11.842 12.39L19.2678 7.375L19.5863 4ZM19.787 4.059L19.4731 7.373L24.7196 10.125L19.787 4.059ZM19.3751 7.525L11.9015 12.576L20.5231 27.943L21.8963 25.584L24.8433 10.4C24.8293 10.391 19.3751 7.525 19.3751 7.525ZM10.7126 8.304L7.1543 14.898L12.5385 25.51L11.6751 12.576L11.6611 12.512L10.7126 8.304ZM11.9085 12.992L12.7601 25.776L20.3283 28L11.9085 12.992Z" fill="white" stroke="black"/>
</g>
<defs>
<clipPath id="clip0_345_83">
<rect width="28" height="24" fill="white" transform="translate(2 4)"/>
</clipPath>
</defs>
</svg>
