<svg width="32" height="32" viewBox="0 0 32 32" fill="none" xmlns="http://www.w3.org/2000/svg">
<path d="M0 1.92C0 0.859613 0.859613 0 1.92 0H30.08C31.1404 0 32 0.859613 32 1.92V30.08C32 31.1404 31.1404 32 30.08 32H1.92C0.859613 32 0 31.1404 0 30.08V1.92Z" fill="black"/>
<path d="M26 16C26 21.5228 21.5228 26 16 26C10.4772 26 6 21.5228 6 16C6 10.4772 10.4772 6 16 6C21.5228 6 26 10.4772 26 16Z" fill="white"/>
<path d="M21 14.2194C21 14.7987 20.8604 15.3305 20.5813 15.8148C20.3022 16.2896 19.8735 16.6743 19.2953 16.9687C18.7171 17.2631 17.9994 17.4103 17.1421 17.4103H15.557V21H13V11H17.1421C17.9794 11 18.6872 11.1377 19.2654 11.4131C19.8436 11.6885 20.2773 12.0684 20.5664 12.5527C20.8555 13.037 21 13.5926 21 14.2194ZM16.9477 15.4729C17.4361 15.4729 17.8 15.3637 18.0393 15.1453C18.2785 14.9269 18.3981 14.6182 18.3981 14.2194C18.3981 13.8205 18.2785 13.5119 18.0393 13.2934C17.8 13.075 17.4361 12.9658 16.9477 12.9658H15.557V15.4729H16.9477Z" fill="black"/>
</svg>
