<svg width="32" height="32" viewBox="0 0 32 32" fill="none" xmlns="http://www.w3.org/2000/svg">
<path d="M0 1.92C0 0.859613 0.859613 0 1.92 0H30.08C31.1404 0 32 0.859613 32 1.92V30.08C32 31.1404 31.1404 32 30.08 32H1.92C0.859613 32 0 31.1404 0 30.08V1.92Z" fill="black"/>
<path fill-rule="evenodd" clip-rule="evenodd" d="M11.2535 17.7073C11.2535 17.9389 11.2918 18.1682 11.3661 18.3822C11.4404 18.5962 11.5494 18.7906 11.6868 18.9543C11.8241 19.1181 11.9872 19.248 12.1667 19.3366C12.3461 19.4252 12.5385 19.4708 12.7328 19.4708C12.927 19.4708 13.1194 19.4252 13.2988 19.3366C13.4783 19.248 13.6414 19.1181 13.7787 18.9543C13.9161 18.7906 14.0251 18.5962 14.0994 18.3822C14.1737 18.1682 14.212 17.9389 14.212 17.7073C14.212 17.4758 14.1737 17.2464 14.0994 17.0325C14.0251 16.8185 13.9161 16.6241 13.7787 16.4604C13.6414 16.2966 13.4783 16.1667 13.2988 16.0781C13.1194 15.9895 12.927 15.9438 12.7328 15.9438C12.5385 15.9438 12.3461 15.9895 12.1667 16.0781C11.9872 16.1667 11.8241 16.2966 11.6868 16.4604C11.5494 16.6241 11.4404 16.8185 11.3661 17.0325C11.2918 17.2464 11.2535 17.4758 11.2535 17.7073ZM16.0681 27C21.0724 27 25.1744 23.7356 25.5206 19.6083C26.4124 18.9079 27.0104 17.6697 26.9999 16.2814C26.9999 14.0927 25.5626 12.3167 23.7896 12.3167C23.1706 12.3167 22.5936 12.5418 22.1005 12.917C20.5793 11.8539 18.6489 11.2035 16.5507 11.116L17.7572 6.97612L20.2646 7.68903C20.2646 7.73906 20.2593 7.78908 20.2541 7.83911C20.2488 7.88914 20.2436 7.93917 20.2436 7.9892C20.2436 9.64014 21.3766 10.9784 22.751 10.9784C24.1358 10.9784 25.2583 9.64014 25.2583 7.9892C25.2583 6.33826 24.1358 5 22.751 5C21.8487 5 21.0619 5.57533 20.6213 6.42581L17.0333 5.40023L15.3547 11.1285C13.267 11.2536 11.3681 11.9414 9.86788 13.0296C9.88361 13.0171 9.89673 13.0045 9.90984 12.992C9.92295 12.9795 9.93607 12.967 9.95181 12.9545C9.44823 12.5543 8.85024 12.3167 8.21028 12.3167C6.44777 12.3167 5 14.0927 5 16.2814C5 17.7447 5.65045 19.008 6.61563 19.6958C7.01429 23.7732 11.0953 27 16.0681 27ZM17.6213 17.7073C17.6213 18.175 17.7771 18.6236 18.0546 18.9543C18.332 19.285 18.7082 19.4708 19.1005 19.4708C19.4929 19.4708 19.8691 19.285 20.1465 18.9543C20.4239 18.6236 20.5798 18.175 20.5798 17.7073C20.5798 17.2396 20.4239 16.7911 20.1465 16.4604C19.8691 16.1296 19.4929 15.9438 19.1005 15.9438C18.7082 15.9438 18.332 16.1296 18.0546 16.4604C17.7771 16.7911 17.6213 17.2396 17.6213 17.7073ZM13.0863 21.6797C13.2842 21.8542 15.7781 24.0543 18.8689 21.6347C19.1207 21.4346 19.4669 21.5221 19.6452 21.8223C19.8131 22.135 19.7501 22.5477 19.4879 22.7478C18.2079 23.7484 16.991 24.0861 15.9523 24.0861C13.8541 24.0861 12.4064 22.7353 12.3854 22.7103C12.1441 22.4726 12.1126 22.0599 12.3014 21.7722C12.4903 21.4846 12.8365 21.4346 13.0778 21.6722C13.0799 21.674 13.0827 21.6765 13.0863 21.6797Z" fill="white"/>
</svg>
